<?xml version="1.0" standalone="no"?>
<!DOCTYPE svg PUBLIC "-//W3C//DTD SVG 20010904//EN"
 "http://www.w3.org/TR/2001/REC-SVG-20010904/DTD/svg10.dtd">
<svg version="1.0" xmlns="http://www.w3.org/2000/svg"
 width="799.000000pt" height="799.000000pt" viewBox="0 0 799.000000 799.000000"
 preserveAspectRatio="xMidYMid meet">
<metadata>
Created by potrace 1.14, written by Peter Selinger 2001-2017
</metadata>
<g transform="translate(0.000000,799.000000) scale(0.100000,-0.100000)"
fill="#000000" stroke="none">
<path d="M4492 7681 c-16 -10 -47 -184 -57 -317 -14 -182 57 -338 187 -410
l53 -29 242 3 243 2 -5 -42 c-8 -75 -24 -231 -31 -298 -5 -58 -10 -69 -44
-105 -22 -22 -43 -50 -47 -62 -4 -12 -116 -137 -248 -278 -132 -142 -241 -263
-243 -269 -1 -7 38 -74 88 -151 49 -77 90 -143 90 -147 0 -15 23 -8 54 16 35
26 90 56 104 56 18 0 19 -24 7 -140 -7 -63 -10 -119 -7 -124 5 -10 141 -2 221
13 58 11 91 2 91 -24 0 -18 0 -18 43 0 59 25 84 19 138 -29 27 -25 63 -48 80
-51 44 -10 31 -27 -32 -40 -70 -14 -111 -37 -170 -92 -48 -45 -49 -45 -139
-52 -81 -7 -94 -11 -122 -37 -17 -16 -46 -60 -64 -99 -31 -68 -94 -135 -198
-212 -16 -13 -26 -23 -21 -23 5 0 -7 -11 -28 -26 -21 -14 -35 -29 -32 -34 3
-5 0 -12 -6 -16 -8 -4 -9 -3 -5 4 12 20 -5 13 -38 -15 -17 -14 -30 -30 -28
-35 1 -5 -2 -7 -7 -4 -5 4 -30 -7 -54 -24 -25 -16 -49 -30 -55 -30 -6 0 -12
-4 -14 -8 -4 -11 -120 -78 -227 -132 -66 -33 -105 -63 -184 -138 -128 -125
-297 -316 -297 -337 0 -4 8 -1 18 6 15 13 16 12 3 -3 -7 -10 -17 -16 -21 -13
-19 11 -120 -129 -120 -166 0 -43 -43 -100 -107 -141 -54 -35 -65 -47 -74 -82
-22 -83 -62 -137 -215 -286 -259 -251 -364 -359 -362 -372 2 -6 -4 -12 -13
-13 -15 0 -107 -105 -93 -105 4 0 -6 -12 -22 -27 -16 -15 -29 -32 -29 -37 -1
-6 -13 -24 -28 -40 -14 -16 -24 -33 -20 -39 3 -5 1 -7 -4 -4 -6 4 -19 -5 -28
-19 -12 -18 -13 -24 -4 -19 8 3 5 -1 -6 -10 -11 -9 -19 -21 -17 -26 1 -6 -2
-8 -7 -5 -17 11 -117 -147 -136 -214 -4 -14 -18 -49 -31 -78 -22 -48 -41 -126
-36 -145 1 -4 4 -42 6 -85 2 -42 9 -95 15 -118 15 -57 66 -129 109 -156 20
-12 39 -25 42 -28 8 -11 103 -56 133 -63 15 -4 27 -11 27 -15 0 -5 -25 -19
-55 -31 -30 -13 -82 -40 -115 -62 -33 -21 -63 -39 -65 -39 -10 0 -299 -287
-352 -350 -28 -32 -184 -239 -280 -371 -84 -114 -184 -285 -203 -346 -10 -34
-26 -76 -35 -92 -8 -17 -15 -35 -15 -41 0 -14 944 -14 971 1 12 6 19 6 19 0 0
-6 85 -10 216 -11 190 0 219 1 235 16 17 15 19 15 19 1 0 -14 143 -15 1513
-14 896 1 1520 6 1531 11 14 7 17 6 12 -2 -5 -9 200 -11 809 -11 614 1 815 4
815 12 0 8 3 7 9 -1 4 -8 18 -12 29 -10 20 3 19 7 -21 59 -122 164 -354 366
-548 479 l-69 41 20 39 c11 22 20 53 20 69 0 37 63 95 95 87 11 -3 61 -17 110
-31 70 -20 107 -25 167 -23 96 4 122 21 165 110 19 40 40 69 52 73 13 4 18 12
14 23 -5 14 -3 15 7 5 17 -16 57 5 116 59 40 37 60 69 32 52 -7 -4 -8 -3 -4 5
4 6 11 9 16 6 5 -3 17 9 26 27 23 43 28 316 8 430 -19 111 -72 312 -105 395
-30 75 -118 373 -120 401 0 14 -2 13 -10 -3 -7 -16 -8 -12 -5 15 2 19 -11 114
-29 210 -19 96 -37 195 -41 220 -7 40 -8 42 -15 20 -5 -14 -6 10 -2 53 4 52 2
77 -6 77 -5 0 -8 7 -5 15 4 8 0 54 -7 102 -10 69 -14 83 -20 63 -5 -16 -6 -2
-4 35 3 38 2 51 -3 35 -7 -19 -10 -5 -16 57 -4 46 -5 91 -2 100 3 10 2 47 -3
83 -5 36 -9 52 -10 35 -1 -24 -3 -27 -11 -15 -6 8 -8 33 -5 55 3 22 2 32 -3
23 -4 -9 -7 22 -8 70 -1 102 -32 211 -95 332 -45 87 -125 193 -140 185 -5 -4
-8 -1 -7 7 2 7 -3 12 -10 10 -8 -1 -11 2 -8 6 6 11 -97 112 -133 131 -12 7
-32 11 -42 8 -12 -3 -17 -1 -12 6 4 6 -2 8 -15 5 -12 -3 -22 -3 -24 1 -2 3
-59 34 -128 69 -93 46 -129 70 -142 92 -9 17 -28 34 -41 39 -13 5 -31 21 -40
35 -10 14 -32 33 -50 42 -17 9 -39 25 -47 35 -8 10 -38 31 -66 46 -29 16 -75
50 -104 77 -49 46 -52 50 -34 63 39 27 65 56 60 68 -3 10 2 10 24 2 16 -6 27
-14 24 -19 -5 -8 66 -43 109 -52 21 -5 29 -2 34 11 4 10 10 20 15 23 14 11
-50 76 -94 95 -23 11 -45 22 -48 25 -3 3 -16 11 -30 17 -25 12 -25 12 8 12 17
1 32 6 32 11 0 6 3 9 8 8 4 -2 8 -1 8 2 1 3 17 22 36 42 19 21 47 65 63 98 16
33 32 60 36 60 10 0 19 -39 19 -85 l1 -40 36 64 c29 50 38 60 45 47 5 -9 17
-16 28 -16 14 0 20 10 25 39 9 52 26 65 75 58 38 -5 39 -4 51 32 13 43 60 131
68 131 4 0 37 -27 74 -61 38 -35 73 -59 81 -56 10 4 16 -5 20 -29 4 -19 11
-34 16 -34 12 0 40 -59 40 -85 0 -29 -47 -47 -75 -28 -25 15 -185 28 -185 14
0 -6 -12 -6 -32 0 -18 5 -63 9 -100 9 -67 0 -68 0 -69 -27 l-1 -28 -7 25 c-7
23 -8 22 -15 -14 -5 -24 -3 -43 3 -49 6 -6 10 -27 10 -46 l-2 -36 -7 35 c-7
34 -7 34 -9 -12 -1 -46 15 -105 45 -160 21 -40 17 -58 -18 -73 l-33 -13 59
-26 c33 -15 75 -43 94 -62 32 -34 36 -35 46 -18 6 11 11 85 12 177 1 134 4
161 19 177 33 36 70 35 150 -5 41 -20 80 -33 86 -29 7 4 9 3 6 -3 -4 -6 14
-21 38 -34 25 -13 45 -27 45 -30 0 -4 23 -16 50 -28 28 -12 50 -26 50 -31 0
-10 82 -50 115 -57 58 -11 102 50 91 129 -3 23 -8 86 -12 138 -4 52 -10 100
-14 105 -19 24 -39 128 -45 225 -9 159 -16 254 -21 262 -3 4 0 38 6 75 9 58
16 73 47 102 35 35 35 35 29 100 -4 36 -11 68 -15 71 -9 6 -81 190 -81 208 0
6 -4 12 -10 12 -5 0 -10 7 -10 16 0 9 -34 131 -76 271 -78 262 -83 291 -88
508 l-1 50 40 -2 c22 -1 54 -9 70 -17 17 -9 47 -16 69 -16 46 0 73 26 81 79 4
20 13 47 21 61 33 55 42 89 49 178 l8 92 -236 0 -235 0 -7 -67 c-8 -85 -21
-120 -60 -158 -37 -37 -68 -51 -129 -60 -65 -10 -87 -31 -93 -89 -4 -28 -2
-47 3 -44 5 3 9 -16 10 -42 1 -31 7 -54 17 -65 10 -9 17 -23 17 -30 0 -20 37
-79 42 -68 3 4 3 2 1 -5 -1 -7 6 -34 18 -59 11 -25 18 -51 15 -59 -3 -8 1 -14
9 -14 8 0 41 -55 79 -132 36 -72 74 -140 85 -152 25 -27 81 -131 81 -151 0 -8
5 -15 10 -15 6 0 10 8 10 18 0 12 6 8 20 -13 24 -36 25 -49 5 -41 -12 4 -11
-3 5 -34 11 -22 20 -47 20 -56 0 -9 9 -29 21 -45 16 -23 20 -40 16 -77 -6 -62
-14 -93 -28 -106 -9 -8 -10 -7 -4 3 16 28 -20 4 -42 -28 l-22 -32 -31 43 c-18
24 -36 42 -42 40 -5 -1 -7 2 -4 7 3 5 -3 20 -15 32 -11 13 -17 18 -13 10 5 -9
3 -12 -5 -7 -6 4 -11 13 -10 19 3 26 -2 37 -15 37 -8 0 -18 5 -22 12 -5 7 -3
8 6 3 8 -5 11 -4 6 3 -4 6 -12 9 -19 6 -7 -2 -20 7 -27 21 -8 15 -26 33 -40
41 -24 14 -24 14 -2 8 23 -6 23 -6 7 25 -9 19 -20 29 -27 25 -7 -4 -8 -3 -4 5
10 16 -36 76 -72 94 -15 7 -26 19 -24 25 1 7 -2 12 -8 12 -11 0 -32 73 -28 98
2 10 -6 21 -19 27 -13 5 -23 13 -23 17 0 5 -6 8 -13 8 -8 0 -22 10 -33 23
l-19 22 23 -20 c20 -16 25 -17 33 -5 5 8 7 21 4 28 -2 6 1 12 8 12 7 1 2 9 -9
19 -30 24 -84 133 -105 211 -30 114 -77 258 -95 292 -10 18 -17 45 -15 60 1
14 -2 29 -8 33 -6 3 -11 19 -11 35 0 24 3 27 22 22 16 -4 19 -2 13 8 -5 8 -4
11 3 6 14 -9 65 12 57 24 -3 5 0 7 8 4 15 -5 47 20 47 37 0 5 6 9 14 9 7 0 20
8 27 18 13 16 13 16 -6 2 -19 -14 -19 -14 -6 3 7 9 19 17 27 17 15 0 84 110
84 134 0 15 -43 16 -489 16 -452 -1 -490 -2 -494 -18 -4 -16 -5 -16 -6 0 -1
16 -50 17 -718 17 -395 1 -724 -3 -731 -8z m1215 -38 c-3 -10 -5 -4 -5 12 0
17 2 24 5 18 2 -7 2 -21 0 -30z m310 0 c-3 -10 -5 -4 -5 12 0 17 2 24 5 18 2
-7 2 -21 0 -30z m-340 5 c-3 -8 -6 -5 -6 6 -1 11 2 17 5 13 3 -3 4 -12 1 -19z
m370 -15 c-3 -10 -5 -4 -5 12 0 17 2 24 5 18 2 -7 2 -21 0 -30z m30 0 c-3 -10
-5 -4 -5 12 0 17 2 24 5 18 2 -7 2 -21 0 -30z m200 15 c-3 -8 -6 -5 -6 6 -1
11 2 17 5 13 3 -3 4 -12 1 -19z m-837 8 c0 -2 -8 -10 -17 -17 -16 -13 -17 -12
-4 4 13 16 21 21 21 13z m517 -58 c-3 -8 -6 -5 -6 6 -1 11 2 17 5 13 3 -3 4
-12 1 -19z m-270 -55 c-2 -16 -4 -5 -4 22 0 28 2 40 4 28 2 -13 2 -35 0 -50z
m340 0 c-2 -16 -4 -5 -4 22 0 28 2 40 4 28 2 -13 2 -35 0 -50z m273 18 c0 -32
-6 -24 -14 19 -4 25 -3 31 4 20 5 -8 10 -26 10 -39z m-243 2 c-3 -10 -5 -4 -5
12 0 17 2 24 5 18 2 -7 2 -21 0 -30z m30 0 c-3 -10 -5 -4 -5 12 0 17 2 24 5
18 2 -7 2 -21 0 -30z m-370 -30 c-3 -10 -5 -2 -5 17 0 19 2 27 5 18 2 -10 2
-26 0 -35z m250 -5 c-3 -7 -5 -2 -5 12 0 14 2 19 5 13 2 -7 2 -19 0 -25z m130
-20 c-3 -7 -5 -2 -5 12 0 14 2 19 5 13 2 -7 2 -19 0 -25z m-30 0 c-3 -8 -6 -5
-6 6 -1 11 2 17 5 13 3 -3 4 -12 1 -19z m240 0 c-3 -8 -6 -5 -6 6 -1 11 2 17
5 13 3 -3 4 -12 1 -19z m-270 -55 c-3 -10 -5 -2 -5 17 0 19 2 27 5 18 2 -10 2
-26 0 -35z m280 5 c-3 -7 -5 -2 -5 12 0 14 2 19 5 13 2 -7 2 -19 0 -25z m-340
-15 c-3 -10 -5 -4 -5 12 0 17 2 24 5 18 2 -7 2 -21 0 -30z m-280 -5 c-3 -8 -6
-5 -6 6 -1 11 2 17 5 13 3 -3 4 -12 1 -19z m-200 -75 c-2 -16 -4 -3 -4 27 0
30 2 43 4 28 2 -16 2 -40 0 -55z m830 45 c-3 -8 -6 -5 -6 6 -1 11 2 17 5 13 3
-3 4 -12 1 -19z m-280 -45 c-3 -10 -5 -2 -5 17 0 19 2 27 5 18 2 -10 2 -26 0
-35z m-60 -5 c-3 -7 -5 -2 -5 12 0 14 2 19 5 13 2 -7 2 -19 0 -25z m1056 25
c-7 -2 -19 -2 -25 0 -7 3 -2 5 12 5 14 0 19 -2 13 -5z m-946 -25 c-3 -8 -6 -5
-6 6 -1 11 2 17 5 13 3 -3 4 -12 1 -19z m240 0 c-3 -8 -6 -5 -6 6 -1 11 2 17
5 13 3 -3 4 -12 1 -19z m-516 -15 c12 -16 12 -17 -1 -7 -8 7 -24 14 -35 17
-19 4 -19 5 1 6 12 0 28 -7 35 -16z m-131 -3 c0 -5 -5 -10 -11 -10 -5 0 -7 5
-4 10 3 6 8 10 11 10 2 0 4 -4 4 -10z m367 -37 c-3 -10 -5 -4 -5 12 0 17 2 24
5 18 2 -7 2 -21 0 -30z m50 15 c-3 -8 -6 -5 -6 6 -1 11 2 17 5 13 3 -3 4 -12
1 -19z m30 0 c-3 -8 -6 -5 -6 6 -1 11 2 17 5 13 3 -3 4 -12 1 -19z m-140 -20
c-3 -7 -5 -2 -5 12 0 14 2 19 5 13 2 -7 2 -19 0 -25z m-500 -10 c-3 -7 -5 -2
-5 12 0 14 2 19 5 13 2 -7 2 -19 0 -25z m343 22 c0 -5 -10 -15 -22 -21 l-23
-12 20 21 c23 24 25 25 25 12z m507 -22 c-3 -7 -5 -2 -5 12 0 14 2 19 5 13 2
-7 2 -19 0 -25z m-743 6 c3 -8 2 -12 -4 -9 -6 3 -10 10 -10 16 0 14 7 11 14
-7z m543 -16 c-3 -8 -6 -5 -6 6 -1 11 2 17 5 13 3 -3 4 -12 1 -19z m-502 -7
c3 -5 0 -13 -6 -17 -7 -4 -9 -3 -5 4 3 5 0 13 -6 15 -9 4 -10 6 -1 6 6 1 14
-3 18 -8z m362 -23 c-3 -8 -6 -5 -6 6 -1 11 2 17 5 13 3 -3 4 -12 1 -19z m70
-30 c-3 -7 -5 -2 -5 12 0 14 2 19 5 13 2 -7 2 -19 0 -25z m57 -3 c5 -22 4 -26
-4 -15 -5 8 -10 24 -10 34 0 26 6 18 14 -19z m-517 3 c-3 -8 -6 -5 -6 6 -1 11
2 17 5 13 3 -3 4 -12 1 -19z m550 -10 c-3 -8 -6 -5 -6 6 -1 11 2 17 5 13 3 -3
4 -12 1 -19z m-750 -50 c-3 -8 -6 -5 -6 6 -1 11 2 17 5 13 3 -3 4 -12 1 -19z
m742 -23 c0 -5 -4 -3 -9 5 -5 8 -9 22 -9 30 0 16 17 -16 18 -35z m-62 13 c-3
-8 -6 -5 -6 6 -1 11 2 17 5 13 3 -3 4 -12 1 -19z m113 -57 c0 -32 -6 -24 -14
19 -4 25 -3 31 4 20 5 -8 10 -26 10 -39z m-43 -8 c-3 -10 -5 -4 -5 12 0 17 2
24 5 18 2 -7 2 -21 0 -30z m-110 -5 c-3 -7 -5 -2 -5 12 0 14 2 19 5 13 2 -7 2
-19 0 -25z m71 -9 c-3 -8 -7 -3 -11 10 -4 17 -3 21 5 13 5 -5 8 -16 6 -23z
m279 -6 c-3 -10 -5 -4 -5 12 0 17 2 24 5 18 2 -7 2 -21 0 -30z m-624 7 c-3
-11 -7 -20 -9 -20 -2 0 -4 9 -4 20 0 11 4 20 9 20 5 0 7 -9 4 -20z m88 -27
c13 -16 12 -17 -3 -4 -10 7 -18 15 -18 17 0 8 8 3 21 -13z m306 11 c-3 -3 -12
-4 -19 -1 -8 3 -5 6 6 6 11 1 17 -2 13 -5z m185 -17 c5 -10 7 -21 4 -25 -4 -3
-9 4 -13 16 -6 24 -14 27 -30 11 -7 -7 -12 -6 -16 3 -8 21 43 16 55 -5z m-82
-7 c6 -11 7 -20 3 -20 -5 0 -16 9 -26 20 -14 16 -14 20 -2 20 8 0 19 -9 25
-20z m-420 -56 c0 -2 -9 0 -20 6 -11 6 -20 13 -20 16 0 2 9 0 20 -6 11 -6 20
-13 20 -16z m70 -24 c-24 -15 -36 -11 -14 4 10 8 21 12 24 10 2 -3 -2 -9 -10
-14z m-64 1 c-4 -5 0 -12 6 -14 7 -3 0 -6 -16 -6 -28 -1 -29 0 -10 14 22 17
27 18 20 6z m794 -61 c0 -5 -7 -7 -15 -4 -8 4 -12 10 -9 15 6 11 24 2 24 -11z
m-1263 -52 c-2 -13 -4 -5 -4 17 -1 22 1 32 4 23 2 -10 2 -28 0 -40z m90 0 c-3
-7 -5 -2 -5 12 0 14 2 19 5 13 2 -7 2 -19 0 -25z m0 -60 c-3 -7 -5 -2 -5 12 0
14 2 19 5 13 2 -7 2 -19 0 -25z m-42 -78 c-3 -5 -12 -10 -18 -10 -7 0 -6 4 3
10 19 12 23 12 15 0z m1468 -120 c11 -13 10 -13 -5 -1 -10 7 -17 25 -17 40 l2
26 4 -25 c3 -14 10 -32 16 -40z m534 -36 c-3 -3 -12 -4 -19 -1 -8 3 -5 6 6 6
11 1 17 -2 13 -5z m-549 -195 c-3 -8 -7 -3 -11 10 -4 17 -3 21 5 13 5 -5 8
-16 6 -23z m97 21 c3 -6 -1 -7 -9 -4 -18 7 -21 14 -7 14 6 0 13 -4 16 -10z
m-27 -169 c7 -19 10 -36 8 -38 -2 -3 -9 13 -16 34 -7 21 -16 42 -21 48 -5 5
-9 14 -9 19 0 17 26 -26 38 -63z m72 -146 c0 -17 -2 -17 -14 5 -7 14 -11 29
-8 34 6 12 22 -15 22 -39z m431 -298 c-10 -9 -11 -8 -5 6 3 10 9 15 12 12 3
-3 0 -11 -7 -18z m-674 -429 c-3 -8 -6 -5 -6 6 -1 11 2 17 5 13 3 -3 4 -12 1
-19z m32 -751 c0 -9 -2 -8 -6 1 -2 6 -10 9 -15 6 -7 -4 -8 -2 -4 5 9 13 26 5
25 -12z m76 13 c-3 -5 -10 -10 -16 -10 -5 0 -9 5 -9 10 0 6 7 10 16 10 8 0 12
-4 9 -10z m43 -40 c-7 -11 -16 -20 -21 -20 -4 0 -3 9 3 20 6 11 15 20 20 20 6
0 5 -9 -2 -20z m-152 -26 c-3 -8 -10 -12 -16 -9 -7 4 -6 14 2 28 12 24 24 8
14 -19z m188 -20 c3 -8 2 -12 -4 -9 -6 3 -10 10 -10 16 0 14 7 11 14 -7z
m-234 -49 c0 -8 -4 -15 -10 -15 -5 0 -7 7 -4 15 4 8 8 15 10 15 2 0 4 -7 4
-15z m607 -217 c-3 -7 -5 -2 -5 12 0 14 2 19 5 13 2 -7 2 -19 0 -25z m-187
-204 c0 -14 -4 -23 -10 -19 -5 3 -10 15 -10 26 0 10 5 19 10 19 6 0 10 -12 10
-26z m340 -39 c0 -5 -5 -3 -10 5 -5 8 -10 20 -10 25 0 6 5 3 10 -5 5 -8 10
-19 10 -25z m7 -47 c-3 -8 -6 -5 -6 6 -1 11 2 17 5 13 3 -3 4 -12 1 -19z
m-1247 -14 c0 -16 -9 -17 -30 -4 -10 6 -20 4 -32 -7 -14 -13 -20 -13 -33 -3
-9 7 -13 15 -10 18 2 3 11 0 18 -7 11 -8 18 -7 31 8 19 21 56 17 56 -5z
m-1813 -196 c-3 -8 -6 -5 -6 6 -1 11 2 17 5 13 3 -3 4 -12 1 -19z m3120 -110
c-3 -7 -5 -2 -5 12 0 14 2 19 5 13 2 -7 2 -19 0 -25z m-4130 -130 c-3 -8 -6
-5 -6 6 -1 11 2 17 5 13 3 -3 4 -12 1 -19z m1020 -35 c-3 -10 -5 -4 -5 12 0
17 2 24 5 18 2 -7 2 -21 0 -30z m2690 5 c-3 -8 -6 -5 -6 6 -1 11 2 17 5 13 3
-3 4 -12 1 -19z m-2670 -140 c-3 -8 -6 -5 -6 6 -1 11 2 17 5 13 3 -3 4 -12 1
-19z m3130 -30 c-3 -7 -5 -2 -5 12 0 14 2 19 5 13 2 -7 2 -19 0 -25z m-1745
-30 c-12 -12 -25 -19 -29 -15 -4 4 3 14 15 23 12 8 19 21 16 27 -5 8 -2 8 7
-1 11 -10 10 -16 -9 -34z m-17 22 c3 -5 1 -10 -4 -10 -6 0 -11 5 -11 10 0 6 2
10 4 10 3 0 8 -4 11 -10z m1772 -42 c-3 -8 -6 -5 -6 6 -1 11 2 17 5 13 3 -3 4
-12 1 -19z m-3410 -120 c-3 -8 -6 -5 -6 6 -1 11 2 17 5 13 3 -3 4 -12 1 -19z
m250 -230 c-2 -35 -3 -7 -3 62 0 69 1 97 3 63 2 -35 2 -91 0 -125z m-30 130
c-3 -8 -6 -5 -6 6 -1 11 2 17 5 13 3 -3 4 -12 1 -19z m3213 -22 c0 -11 -19
-15 -25 -6 -3 5 1 10 9 10 9 0 16 -2 16 -4z m9 -56 c6 0 11 -7 11 -15 0 -8 -3
-15 -7 -15 -13 0 -43 34 -43 49 1 14 2 14 14 -1 7 -10 18 -18 25 -18z m-3464
-217 c6 -60 -10 -300 -20 -311 -2 -2 -25 -3 -51 -3 -168 3 -272 1 -292 -4 -22
-5 -23 -3 -20 43 2 28 7 48 13 46 16 -6 46 22 48 45 3 43 292 295 309 268 3
-6 10 -44 13 -84z m3502 55 c-3 -7 -5 -2 -5 12 0 14 2 19 5 13 2 -7 2 -19 0
-25z m-3267 -63 c0 -8 -4 -15 -10 -15 -5 0 -7 7 -4 15 4 8 8 15 10 15 2 0 4
-7 4 -15z m-1430 -179 c0 -2 -8 -10 -17 -17 -16 -13 -17 -12 -4 4 13 16 21 21
21 13z m1217 -28 c-3 -8 -6 -5 -6 6 -1 11 2 17 5 13 3 -3 4 -12 1 -19z m2750
-40 c-3 -8 -6 -5 -6 6 -1 11 2 17 5 13 3 -3 4 -12 1 -19z m-357 -170 c0 6 5
12 11 12 8 0 8 -5 -1 -15 -17 -20 -30 -19 -30 3 0 14 2 15 10 2 6 -10 10 -11
10 -2z m1237 -140 c-3 -8 -6 -5 -6 6 -1 11 2 17 5 13 3 -3 4 -12 1 -19z m16
-38 c3 -11 1 -18 -4 -14 -5 3 -9 12 -9 20 0 20 7 17 13 -6z m26 -80 c0 -10 -3
-8 -9 5 -12 27 -12 43 0 25 5 -8 9 -22 9 -30z m20 -60 c0 -10 -3 -8 -9 5 -12
27 -12 43 0 25 5 -8 9 -22 9 -30z m48 -172 c-3 -8 -6 -5 -6 6 -1 11 2 17 5 13
3 -3 4 -12 1 -19z m20 -105 c-3 -10 -5 -4 -5 12 0 17 2 24 5 18 2 -7 2 -21 0
-30z m-1207 -23 c0 -13 -5 -18 -15 -14 -16 7 -19 17 -8 27 12 13 23 7 23 -13z
m-241 -72 c-2 -2 -17 -14 -34 -28 l-30 -25 24 28 c14 15 29 27 34 27 6 0 8 -1
6 -2z m1448 -170 c-3 -8 -6 -5 -6 6 -1 11 2 17 5 13 3 -3 4 -12 1 -19z m-3477
-238 c-7 -4 -9 -13 -5 -20 5 -9 4 -11 -3 -6 -16 9 -15 29 0 44 9 9 14 10 17 1
2 -6 -2 -15 -9 -19z m67 -606 c-3 -3 -12 -4 -19 -1 -8 3 -5 6 6 6 11 1 17 -2
13 -5z m-1850 -260 c-3 -3 -12 -4 -19 -1 -8 3 -5 6 6 6 11 1 17 -2 13 -5z
m2190 -10 c-3 -3 -12 -4 -19 -1 -8 3 -5 6 6 6 11 1 17 -2 13 -5z"/>
<path d="M1507 1384 c-216 -52 -375 -212 -644 -644 -29 -47 -74 -123 -99 -170
-26 -47 -57 -101 -69 -120 -38 -60 -85 -140 -85 -145 0 -3 191 -5 424 -5 l423
1 58 97 c244 410 299 520 363 729 36 114 38 142 17 182 -37 73 -238 112 -388
75z"/>
<path d="M385 831 c-23 -5 -41 -22 -76 -76 -26 -39 -44 -76 -42 -82 3 -7 0
-13 -6 -13 -15 0 -81 -104 -81 -128 0 -11 -7 -22 -15 -26 -14 -5 -119 -159
-132 -192 -3 -8 1 -14 11 -14 9 0 16 6 16 13 0 8 4 7 10 -3 8 -12 10 -12 10
-1 0 10 4 11 13 3 7 -7 89 -11 213 -11 l200 -1 51 127 c67 167 107 324 91 358
-17 38 -66 55 -155 54 -43 -1 -91 -4 -108 -8z"/>
</g>
</svg>
